<svg width="19" height="19" viewBox="0 0 19 19" fill="none" xmlns="http://www.w3.org/2000/svg">
<g clip-path="url(#clip0_1_12)">
<mask id="mask0_1_12" style="mask-type:luminance" maskUnits="userSpaceOnUse" x="0" y="0" width="19" height="19">
<path d="M19 0H0V19H19V0Z" fill="white"/>
</mask>
<g mask="url(#mask0_1_12)">
<path d="M17.7366 9.7461C17.6602 9.58968 17.6602 9.4103 17.7366 9.25392L18.4453 7.80425C18.8398 6.99709 18.5272 6.03503 17.7336 5.61396L16.3082 4.85767C16.1544 4.77611 16.049 4.63093 16.0189 4.45953L15.7401 2.87018C15.5849 1.98527 14.7664 1.39064 13.877 1.51647L12.2793 1.74247C12.1069 1.76681 11.9363 1.71137 11.8113 1.59036L10.6516 0.468475C10.0058 -0.156221 8.99422 -0.156258 8.34852 0.468475L7.18879 1.59047C7.06365 1.71152 6.89314 1.76685 6.72073 1.74258L5.12307 1.51659C4.23338 1.39067 3.41512 1.98539 3.25989 2.87029L2.98113 4.45956C2.95103 4.63101 2.84561 4.77614 2.69186 4.85775L1.2665 5.61403C0.472883 6.03507 0.160276 6.9972 0.55482 7.80436L1.26342 9.25399C1.33986 9.41041 1.33986 9.58979 1.26342 9.74617L0.554783 11.1958C0.160238 12.003 0.472846 12.965 1.26646 13.3861L2.69183 14.1424C2.84561 14.2239 2.95103 14.3691 2.98113 14.5405L3.25989 16.1299C3.4012 16.9354 4.09195 17.5004 4.88583 17.5003C4.96402 17.5003 5.04336 17.4948 5.12311 17.4835L6.72077 17.2575C6.89306 17.2331 7.06369 17.2886 7.18882 17.4097L8.34852 18.5315C8.67145 18.8439 9.08566 19.0001 9.50002 19C9.91427 19 10.3287 18.8439 10.6515 18.5315L11.8113 17.4097C11.9364 17.2886 12.1069 17.2334 12.2793 17.2575L13.877 17.4835C14.7668 17.6094 15.5849 17.0147 15.7401 16.1298L16.0189 14.5406C16.049 14.3691 16.1545 14.224 16.3082 14.1424L17.7336 13.3861C18.5272 12.9651 18.8398 12.0029 18.4453 11.1958L17.7366 9.7461ZM7.30832 4.56874C8.4161 4.56874 9.31737 5.47001 9.31737 6.57779C9.31737 7.68558 8.4161 8.58685 7.30832 8.58685C6.20053 8.58685 5.29926 7.68558 5.29926 6.57779C5.29926 5.47001 6.20053 4.56874 7.30832 4.56874ZM6.27134 13.5035C6.16435 13.6105 6.02412 13.664 5.88392 13.664C5.74372 13.664 5.60345 13.6105 5.4965 13.5035C5.28253 13.2895 5.28253 12.9426 5.4965 12.7286L12.7287 5.49647C12.9426 5.2825 13.2896 5.2825 13.5035 5.49647C13.7175 5.71044 13.7175 6.05737 13.5035 6.27135L6.27134 13.5035ZM11.6916 14.4313C10.5839 14.4313 9.6826 13.53 9.6826 12.4223C9.6826 11.3145 10.5839 10.4132 11.6916 10.4132C12.7994 10.4132 13.7007 11.3145 13.7007 12.4223C13.7007 13.53 12.7994 14.4313 11.6916 14.4313Z" fill="#FF5800"/>
<path d="M11.6916 11.5091C11.1881 11.5091 10.7784 11.9187 10.7784 12.4223C10.7784 12.9258 11.1881 13.3355 11.6916 13.3355C12.1952 13.3355 12.6048 12.9258 12.6048 12.4223C12.6048 11.9187 12.1952 11.5091 11.6916 11.5091Z" fill="#FF5800"/>
<path d="M7.30831 5.66455C6.80477 5.66455 6.39513 6.0742 6.39513 6.57773C6.39513 7.08127 6.80477 7.49095 7.30831 7.49095C7.81184 7.49095 8.22153 7.0813 8.22153 6.57773C8.22149 6.07424 7.81184 5.66455 7.30831 5.66455Z" fill="#FF5800"/>
</g>
</g>
<defs>
<clipPath id="clip0_1_12">
<rect width="19" height="19" fill="white"/>
</clipPath>
</defs>
</svg>
