<svg width="19" height="19" viewBox="0 0 19 19" fill="none" xmlns="http://www.w3.org/2000/svg">
<path d="M11.6995 1.22461L3.5625 11.2812H8.3125L7.14318 17.7097C7.14096 17.7223 7.14153 17.7353 7.14485 17.7476C7.14817 17.76 7.15416 17.7715 7.16241 17.7813C7.17065 17.7911 7.18095 17.799 7.19257 17.8044C7.20418 17.8098 7.21684 17.8125 7.22965 17.8125C7.24328 17.8125 7.25671 17.8093 7.26889 17.8032C7.28106 17.7971 7.29164 17.7882 7.29979 17.7772L15.4375 7.71875H10.6875L11.8624 1.28955C11.864 1.27674 11.8628 1.26374 11.859 1.25142C11.8551 1.2391 11.8487 1.22773 11.8402 1.21808C11.8316 1.20842 11.8211 1.2007 11.8093 1.19543C11.7975 1.19016 11.7847 1.18746 11.7718 1.1875C11.7577 1.18756 11.7438 1.19095 11.7312 1.19739C11.7186 1.20384 11.7078 1.21317 11.6995 1.22461Z" fill="#FF5800" stroke="#FF5800" stroke-linecap="round" stroke-linejoin="round"/>
</svg>
