<svg width="17" height="17" viewBox="0 0 17 17" fill="none" xmlns="http://www.w3.org/2000/svg">
<g clip-path="url(#clip0_1_2)">
<path d="M9.05018 5.49711H0.830078C0.609928 5.49711 0.398794 5.40966 0.243124 5.25399C0.0874544 5.09832 0 4.88718 0 4.66703C0 4.44688 0.0874544 4.23575 0.243124 4.08008C0.398794 3.92441 0.609928 3.83695 0.830078 3.83695H9.05117C9.27132 3.83695 9.48246 3.92441 9.63813 4.08008C9.7938 4.23575 9.88125 4.44688 9.88125 4.66703C9.88125 4.88718 9.7938 5.09832 9.63813 5.25399C9.48246 5.40966 9.27132 5.49711 9.05117 5.49711H9.05018Z" fill="black"/>
<path d="M16.1699 5.49711H14.0921C13.8719 5.49711 13.6608 5.40966 13.5051 5.25399C13.3494 5.09832 13.262 4.88718 13.262 4.66703C13.262 4.44688 13.3494 4.23575 13.5051 4.08008C13.6608 3.92441 13.8719 3.83695 14.0921 3.83695H16.1699C16.3901 3.83695 16.6012 3.92441 16.7569 4.08008C16.9125 4.23575 17 4.44688 17 4.66703C17 4.88718 16.9125 5.09832 16.7569 5.25399C16.6012 5.40966 16.3901 5.49711 16.1699 5.49711Z" fill="black"/>
<path d="M16.1699 13.163H7.94982C7.72967 13.163 7.51854 13.0756 7.36287 12.9199C7.2072 12.7643 7.11975 12.5531 7.11975 12.333C7.11975 12.1128 7.2072 11.9017 7.36287 11.746C7.51854 11.5903 7.72967 11.5029 7.94982 11.5029H16.1699C16.3901 11.5029 16.6012 11.5903 16.7569 11.746C16.9125 11.9017 17 12.1128 17 12.333C17 12.5531 16.9125 12.7643 16.7569 12.9199C16.6012 13.0756 16.3901 13.163 16.1699 13.163Z" fill="black"/>
<path d="M2.90793 13.163H0.830078C0.609928 13.163 0.398794 13.0756 0.243124 12.9199C0.0874544 12.7643 0 12.5531 0 12.333C0 12.1128 0.0874544 11.9017 0.243124 11.746C0.398794 11.5903 0.609928 11.5029 0.830078 11.5029H2.90793C3.12808 11.5029 3.33921 11.5903 3.49488 11.746C3.65055 11.9017 3.73801 12.1128 3.73801 12.333C3.73801 12.5531 3.65055 12.7643 3.49488 12.9199C3.33921 13.0756 3.12808 13.163 2.90793 13.163Z" fill="black"/>
<path d="M5.42904 15.6227C4.76623 15.6228 4.11827 15.4263 3.56713 15.0581C3.01599 14.6899 2.5864 14.1666 2.33271 13.5542C2.07901 12.9419 2.0126 12.2681 2.14187 11.618C2.27114 10.9679 2.59028 10.3707 3.05894 9.90201C3.5276 9.4333 4.12473 9.1141 4.7748 8.98477C5.42488 8.85543 6.09871 8.92178 6.71108 9.17541C7.32345 9.42905 7.84685 9.85858 8.2151 10.4097C8.58335 10.9608 8.7799 11.6087 8.7799 12.2715C8.77929 13.1601 8.42606 14.0121 7.7978 14.6404C7.16953 15.2687 6.31759 15.622 5.42904 15.6227ZM5.42904 10.5808C5.09456 10.5808 4.76757 10.6799 4.48943 10.8657C4.21129 11.0515 3.99449 11.3156 3.86646 11.6246C3.73843 11.9336 3.70491 12.2736 3.77015 12.6017C3.83539 12.9298 3.99645 13.2311 4.23297 13.4676C4.46948 13.7041 4.77083 13.8652 5.09889 13.9304C5.42695 13.9957 5.76699 13.9622 6.076 13.8341C6.38501 13.7061 6.64911 13.4893 6.83489 13.2112C7.02068 12.933 7.11981 12.606 7.11975 12.2715C7.11904 11.8234 6.94069 11.3937 6.62377 11.0768C6.30686 10.7599 5.87723 10.5815 5.42904 10.5808Z" fill="black"/>
<path d="M11.571 8.01822C10.9082 8.01822 10.2602 7.82168 9.70913 7.45344C9.15803 7.08521 8.7285 6.56183 8.47486 5.94948C8.22122 5.33713 8.15485 4.66331 8.28416 4.01325C8.41346 3.36318 8.73263 2.76605 9.20131 2.29738C9.66998 1.82871 10.2671 1.50954 10.9172 1.38023C11.5672 1.25093 12.2411 1.31729 12.8534 1.57093C13.4658 1.82458 13.9891 2.25411 14.3574 2.80521C14.7256 3.35631 14.9221 4.00423 14.9221 4.66703C14.9215 5.55563 14.5683 6.40766 13.9399 7.036C13.3116 7.66434 12.4596 8.01761 11.571 8.01822ZM11.571 2.97633C11.2365 2.97633 10.9095 3.07551 10.6314 3.26134C10.3533 3.44717 10.1366 3.71129 10.0086 4.02031C9.88063 4.32932 9.84716 4.66935 9.91244 4.99739C9.97771 5.32543 10.1388 5.62674 10.3753 5.86322C10.6119 6.09971 10.9132 6.26073 11.2413 6.32595C11.5693 6.39116 11.9093 6.35762 12.2183 6.22958C12.5273 6.10154 12.7914 5.88474 12.9772 5.60661C13.1629 5.32848 13.2621 5.0015 13.262 4.66703C13.2613 4.21879 13.0829 3.78911 12.7659 3.47218C12.4489 3.15526 12.0192 2.97694 11.571 2.97633Z" fill="black"/>
</g>
<defs>
<clipPath id="clip0_1_2">
<rect width="17" height="17" fill="white"/>
</clipPath>
</defs>
</svg>
