<svg width="19" height="19" viewBox="0 0 19 19" fill="none" xmlns="http://www.w3.org/2000/svg">
<g clip-path="url(#clip0_1_2)">
<mask id="mask0_1_2" style="mask-type:luminance" maskUnits="userSpaceOnUse" x="0" y="0" width="19" height="19">
<path d="M19 0H0V19H19V0Z" fill="white"/>
</mask>
<g mask="url(#mask0_1_2)">
<path d="M12.2708 16.2292C8.56028 16.2292 5.54166 13.2106 5.54166 9.50003C5.54166 5.78946 8.56028 2.77087 12.2708 2.77087C15.9814 2.77087 19 5.78946 19 9.50003C19 13.2106 15.9814 16.2292 12.2708 16.2292ZM12.2708 4.35418C9.4335 4.35418 7.125 6.6625 7.125 9.50003C7.125 12.3376 9.4335 14.6459 12.2708 14.6459C15.1082 14.6459 17.4167 12.3376 17.4167 9.50003C17.4167 6.6625 15.1082 4.35418 12.2708 4.35418Z" fill="#FF5800"/>
<path d="M14.6458 10.2917H12.2708C12.0609 10.2917 11.8595 10.2083 11.7111 10.0598C11.5626 9.91134 11.4792 9.70998 11.4792 9.50002V5.93752C11.4806 5.72849 11.5646 5.52851 11.7129 5.38121C11.8613 5.23391 12.0618 5.15125 12.2708 5.15125C12.4799 5.15125 12.6804 5.23391 12.8287 5.38121C12.977 5.52851 13.0611 5.72849 13.0625 5.93752V8.70836H14.6458C14.7498 8.70836 14.8528 8.72884 14.9488 8.76862C15.0448 8.80841 15.1321 8.86672 15.2056 8.94023C15.2791 9.01374 15.3375 9.10102 15.3772 9.19706C15.417 9.29311 15.4375 9.39606 15.4375 9.50002C15.4375 9.60398 15.417 9.70692 15.3772 9.80297C15.3375 9.89902 15.2791 9.98629 15.2056 10.0598C15.1321 10.1333 15.0448 10.1916 14.9488 10.2314C14.8528 10.2712 14.7498 10.2917 14.6458 10.2917Z" fill="#FF5800"/>
<path d="M4.35416 7.12499H1.58335C1.47893 7.12571 1.3754 7.10576 1.27872 7.06629C1.18205 7.02683 1.09413 6.96863 1.02004 6.89504C0.94595 6.82146 0.887149 6.73394 0.847023 6.63754C0.806897 6.54113 0.78624 6.43774 0.78624 6.33332C0.78624 6.2289 0.806897 6.1255 0.847023 6.0291C0.887149 5.93269 0.94595 5.84518 1.02004 5.77159C1.09413 5.69801 1.18205 5.63981 1.27872 5.60034C1.3754 5.56088 1.47893 5.54093 1.58335 5.54164H4.35416C4.45858 5.54093 4.56211 5.56088 4.65879 5.60034C4.75547 5.63981 4.84338 5.69801 4.91747 5.77159C4.99156 5.84518 5.05036 5.93269 5.09049 6.0291C5.13061 6.1255 5.15127 6.2289 5.15127 6.33332C5.15127 6.43774 5.13061 6.54113 5.09049 6.63754C5.05036 6.73394 4.99156 6.82146 4.91747 6.89504C4.84338 6.96863 4.75547 7.02683 4.65879 7.06629C4.56211 7.10576 4.45858 7.12571 4.35416 7.12499Z" fill="#FF5800"/>
<path d="M3.95835 10.2917H0.791654C0.581695 10.2917 0.380334 10.2083 0.23187 10.0598C0.0834062 9.91135 0 9.70999 0 9.50003C0 9.29007 0.0834062 9.08871 0.23187 8.94024C0.380334 8.79178 0.581695 8.70837 0.791654 8.70837H3.95835C4.16831 8.70837 4.36967 8.79178 4.51813 8.94024C4.66659 9.08871 4.75 9.29007 4.75 9.50003C4.75 9.70999 4.66659 9.91135 4.51813 10.0598C4.36967 10.2083 4.16831 10.2917 3.95835 10.2917Z" fill="#FF5800"/>
<path d="M4.35416 13.4584H2.77085C2.66643 13.4591 2.5629 13.4391 2.46622 13.3997C2.36955 13.3602 2.28163 13.302 2.20754 13.2284C2.13345 13.1548 2.07465 13.0673 2.03452 12.9709C1.9944 12.8745 1.97374 12.7711 1.97374 12.6667C1.97374 12.5623 1.9944 12.4589 2.03452 12.3625C2.07465 12.2661 2.13345 12.1786 2.20754 12.105C2.28163 12.0314 2.36955 11.9732 2.46622 11.9337C2.5629 11.8943 2.66643 11.8743 2.77085 11.875H4.35416C4.45858 11.8743 4.56211 11.8943 4.65879 11.9337C4.75547 11.9732 4.84338 12.0314 4.91747 12.105C4.99156 12.1786 5.05036 12.2661 5.09049 12.3625C5.13061 12.4589 5.15127 12.5623 5.15127 12.6667C5.15127 12.7711 5.13061 12.8745 5.09049 12.9709C5.05036 13.0673 4.99156 13.1548 4.91747 13.2284C4.84338 13.302 4.75547 13.3602 4.65879 13.3997C4.56211 13.4391 4.45858 13.4591 4.35416 13.4584Z" fill="#FF5800"/>
</g>
</g>
<defs>
<clipPath id="clip0_1_2">
<rect width="19" height="19" fill="white"/>
</clipPath>
</defs>
</svg>
